<svg xmlns="http://www.w3.org/2000/svg" viewBox="0 0 260 170" width="260" height="170">
  <rect width="260" height="170" rx="12" fill="#1e293b"/>
  <rect x="14" y="14" width="232" height="142" rx="8" fill="none" stroke="#8b5cf6" stroke-width="0.6" opacity="0.2"/>
  <!-- route network doodle -->
  <g transform="translate(30, 22)" fill="none" stroke="#8b5cf6" stroke-width="1" opacity="0.45">
    <circle cx="10" cy="40" r="5" fill="#8b5cf6" opacity="0.25"/>
    <circle cx="40" cy="15" r="4" fill="#8b5cf6" opacity="0.2"/>
    <circle cx="55" cy="50" r="4.5" fill="#8b5cf6" opacity="0.25"/>
    <circle cx="25" cy="65" r="3.5" fill="#8b5cf6" opacity="0.2"/>
    <circle cx="70" cy="30" r="3" fill="#8b5cf6" opacity="0.15"/>
    <line x1="10" y1="40" x2="40" y2="15"/>
    <line x1="40" y1="15" x2="55" y2="50"/>
    <line x1="10" y1="40" x2="25" y2="65"/>
    <line x1="55" y1="50" x2="70" y2="30"/>
    <line x1="25" y1="65" x2="55" y2="50"/>
  </g>
  <!-- plane icon -->
  <g transform="translate(140, 18)" fill="none" stroke="#8b5cf6" stroke-width="0.8" opacity="0.3">
    <path d="M10,25 L25,12 L40,25 M25,12 L25,40"/>
    <line x1="15" y1="33" x2="35" y2="33"/>
  </g>
  <text x="120" y="100" font-family="'SF Mono','Cascadia Code',Consolas,monospace" font-size="14" font-weight="700" fill="#8b5cf6">Meridian Wings</text>
  <text x="120" y="116" font-family="'SF Mono','Cascadia Code',Consolas,monospace" font-size="8.5" fill="#94a3b8">Optimization · MILP · Fleet</text>
  <text x="120" y="128" font-family="monospace" font-size="7.5" fill="#475569">+$2.46M · 2000 simulations</text>
</svg>
